HIERARCHY
ROOT root
{
	OFFSET	0	13.1	24.9
	CHANNELS 6  Xposition Yposition Zposition Xrotation Yrotation Zrotation
	JOINT spine_1
	{
		OFFSET	0	9.99999	0
		CHANNELS 3  Xrotation Yrotation Zrotation
		JOINT spine_2
		{
			OFFSET	0	112	-10
			CHANNELS 3  Xrotation Yrotation Zrotation
			JOINT spine_3
			{
				OFFSET	0	206.5	19.3
				CHANNELS 3  Xrotation Yrotation Zrotation
				JOINT spine_4
				{
					OFFSET	0	110.4	14.6
					CHANNELS 3  Xrotation Yrotation Zrotation
					JOINT neck_1
					{
						OFFSET	0	71.8	-50.3
						CHANNELS 3  Xrotation Yrotation Zrotation
						JOINT neck_2
						{
							OFFSET	0	86.2	-25.8
							CHANNELS 3  Xrotation Yrotation Zrotation
							JOINT head_ee
							{
								OFFSET	0	179.8	-8.7
								CHANNELS 3  Xrotation Yrotation Zrotation
								End Site
								{
									OFFSET	1	0	0
								}
							}
						}
					}
					JOINT left_clavicle
					{
						OFFSET	-43.2	22.4	-70.8
						CHANNELS 3  Xrotation Yrotation Zrotation
						JOINT left_shoulder
						{
							OFFSET	-93.9	-5.79999	48.7
							CHANNELS 3  Xrotation Yrotation Zrotation
							JOINT left_elbow
							{
								OFFSET	-291.4	-30.8	15.2
								CHANNELS 3  Xrotation Yrotation Zrotation
								JOINT left_lowarm_twist
								{
									OFFSET	-110.7	-3.89999	13.6
									CHANNELS 3  Xrotation Yrotation Zrotation
									JOINT left_hand
									{
										OFFSET	-110.7	-3.89999	13.6
										CHANNELS 3  Xrotation Yrotation Zrotation
										JOINT left_ee
										{
											OFFSET	-80.8	-5.10001	12.1
											CHANNELS 3  Xrotation Yrotation Zrotation
											End Site
											{
												OFFSET	1	0	0
											}
										}
									}
								}
							}
						}
					}
					JOINT right_clavicle
					{
						OFFSET	43.2	22.4	-70.8
						CHANNELS 3  Xrotation Yrotation Zrotation
						JOINT right_shoulder
						{
							OFFSET	93.9	-5.79999	48.7
							CHANNELS 3  Xrotation Yrotation Zrotation
							JOINT right_elbow
							{
								OFFSET	291.4	-30.8	15.2
								CHANNELS 3  Xrotation Yrotation Zrotation
								JOINT right_lowarm_twist
								{
									OFFSET	110.7	-3.89999	13.6
									CHANNELS 3  Xrotation Yrotation Zrotation
									JOINT right_hand
									{
										OFFSET	110.7	-3.89999	13.6
										CHANNELS 3  Xrotation Yrotation Zrotation
										JOINT right_ee
										{
											OFFSET	80.8	-5.10001	12.1
											CHANNELS 3  Xrotation Yrotation Zrotation
											End Site
											{
												OFFSET	1	0	0
											}
										}
									}
								}
							}
						}
					}
				}
			}
		}
	}
	JOINT left_hip
	{
		OFFSET	-82.8	-127.5	0.300001
		CHANNELS 3  Xrotation Yrotation Zrotation
		JOINT left_knee
		{
			OFFSET	-28.2	-396.7	2.2
			CHANNELS 3  Xrotation Yrotation Zrotation
			JOINT left_ankle
			{
				OFFSET	-11.7	-411.3	35.4
				CHANNELS 3  Xrotation Yrotation Zrotation
				JOINT left_toes
				{
					OFFSET	0	-60	-88.6
					CHANNELS 3  Xrotation Yrotation Zrotation
					JOINT left_foot_ee
					{
						OFFSET	-22.5	-16.5	-42.2
						CHANNELS 3  Xrotation Yrotation Zrotation
						End Site
						{
							OFFSET	1	0	0
						}
					}
				}
			}
		}
	}
	JOINT right_hip
	{
		OFFSET	82.8	-127.5	0.300001
		CHANNELS 3  Xrotation Yrotation Zrotation
		JOINT right_knee
		{
			OFFSET	28.2	-396.7	2.2
			CHANNELS 3  Xrotation Yrotation Zrotation
			JOINT right_ankle
			{
				OFFSET	11.7	-411.3	35.4
				CHANNELS 3  Xrotation Yrotation Zrotation
				JOINT right_toes
				{
					OFFSET	0	-60	-88.6
					CHANNELS 3  Xrotation Yrotation Zrotation
					JOINT right_foot_ee
					{
						OFFSET	22.5	-16.5	-42.2
						CHANNELS 3  Xrotation Yrotation Zrotation
						End Site
						{
							OFFSET	1	0	0
						}
					}
				}
			}
		}
	}
}
MOTION
Frames: 7
Frame Time: 0.02
2550.37 625.12 -919.534 -27.5765 47.2998 20.187 7.0984 0.2724 0.912206 7.09884 0.213805 0.927689 7.10163 0.131648 0.94286 7.1005 0.278897 0.910241 -14.357 4.16228 -3.22476 -14.4054 9.89599 -1.71991 -0.0 0.0 -0.0 5.64737 -5.0229 10.7731 1.65021 -10.6752 57.3331 2.55658 -51.6967 1.23872 82.0033 -4.07145 -8.71864 1.59548 -11.2931 5.97054 -0.0 0.0 -0.0 11.0002 5.51247 -21.9888 46.7535 -68.2873 -0.468288 0.463225 12.924 -0.052467 76.7773 3.47226 8.41777 -2.76162 16.2157 26.2178 0.0 0.0 0.0 5.2655 31.2984 6.04735 -13.3132 0.315363 2.01417 40.0457 -5.85781 -4.94895 1.70611 -0.0 -0.0 -0.0 0.0 -0.0 52.2196 22.4062 -9.30771 -2.51377 -0.0953088 -0.373977 0.583563 5.34307 0.0877898 -39.4215 0.0 0.0 0.0 0.0 0.0 
2528.26 618.259 -933.14 -27.8083 47.9625 20.3548 7.03282 0.238106 1.13201 7.03352 0.165596 1.14486 7.03581 0.0632514 1.15504 7.03403 0.244863 1.13056 -13.2754 1.92932 -3.93374 -13.2562 6.12342 -3.17107 -0.0 0.0 -0.0 5.77397 -4.47986 11.0505 -1.16899 -11.2943 56.874 2.88972 -55.0521 1.5062 84.9576 -4.42144 -8.86417 1.50008 -9.3904 6.1498 -0.0 0.0 -0.0 10.7232 3.31954 -21.3204 42.1987 -68.5886 -4.27839 0.509455 14.1641 -0.0632943 75.0425 3.27971 8.30599 -2.83446 15.8524 26.6073 0.0 0.0 0.0 4.00214 29.9219 5.86567 -14.5364 0.320701 2.20176 39.8968 -6.05174 -4.93933 1.95781 -0.0 -0.0 -0.0 0.0 -0.0 54.0726 22.208 -10.0303 -9.78532 -0.277561 -1.47427 2.57335 9.23703 0.3924 -35.382 0.0 0.0 0.0 0.0 0.0 
2497.74 614.86 -950.69 -26.5478 46.9251 18.3843 6.92446 0.375303 0.961302 6.92492 0.313376 0.983232 6.9296 0.222958 1.00759 6.92838 0.379282 0.959738 -13.8151 3.11538 -1.62621 -13.8426 6.93763 -0.575598 -0.0 0.0 -0.0 5.19675 -0.825694 10.019 -5.31365 -13.5797 56.2151 2.9919 -55.9804 1.59043 85.1733 -4.44729 -8.87409 1.49477 -4.56027 8.16537 -0.0 0.0 -0.0 11.1805 4.5681 -22.3517 42.8514 -67.167 -4.93865 0.404495 11.3308 -0.0401274 73.4991 3.1113 8.20169 -2.66722 21.6985 27.6936 0.0 0.0 0.0 1.97611 28.3955 7.1217 -15.8069 0.322003 2.39669 39.8465 -1.87911 -4.87917 4.12953 -0.0 -0.0 -0.0 0.0 -0.0 53.883 23.7383 -10.82 -14.1898 -0.319595 -2.14859 7.10555 14.128 1.10118 -31.7651 0.0 0.0 0.0 0.0 0.0 
2471.66 612.258 -965.357 -27.6903 47.8567 19.406 7.13673 0.289643 1.04475 7.13731 0.222579 1.06107 7.14055 0.12943 1.0764 7.13906 0.297795 1.04246 -12.5699 4.17709 -3.72128 -12.592 10.2937 -2.34936 -0.0 0.0 -0.0 4.62752 1.28279 8.98316 -7.12962 -14.3147 58.2827 2.90826 -55.2238 1.52141 84.9134 -4.41616 -8.86213 2.01807 -4.86238 11.6187 -0.0 0.0 -0.0 10.2467 1.4917 -20.237 36.9 -65.5568 -12.7709 0.31874 8.97281 -0.0250093 79.0393 3.72823 8.55469 -3.03981 13.5657 27.1709 0.0 0.0 0.0 4.29548 28.1545 5.42694 -20.7177 0.286416 3.1491 40.2725 0.862489 -4.89353 2.62881 -0.0 -0.0 -0.0 0.0 -0.0 53.5548 22.0783 -10.2981 -16.1723 -0.321577 -2.45275 9.418 17.1965 1.48127 -31.3978 0.0 0.0 0.0 0.0 0.0 
2452.39 615.368 -977.502 -27.0152 47.3541 18.1494 7.06026 0.281339 1.21523 7.06106 0.203447 1.23066 7.06425 0.0939587 1.24382 7.0622 0.289203 1.21338 -12.7238 4.44471 -1.56444 -12.7707 9.43488 -0.190035 -0.0 0.0 -0.0 4.39438 1.57535 8.54658 -9.25852 -14.8388 58.0867 2.48 -50.8468 1.17897 82.5565 -4.13641 -8.74726 2.62875 -1.93306 17.077 -0.0 0.0 -0.0 10.57 1.95733 -20.9381 34.7461 -65.9557 -16.3354 0.328138 9.23288 -0.0264962 85.2056 4.45116 8.87557 -1.91935 18.0798 20.8823 0.0 0.0 0.0 6.0007 22.9109 6.16367 -22.853 0.250856 3.4748 40.9655 10.4609 -4.96397 7.08147 -0.0 -0.0 -0.0 0.0 -0.0 51.5459 23.4756 -9.90734 -14.0859 -0.319201 -2.13266 9.92109 18.398 1.57305 -33.7743 0.0 0.0 0.0 0.0 0.0 
2414.12 618.359 -992.38 -26.4152 47.2874 17.1423 7.12955 0.299056 1.05143 7.13014 0.231548 1.06833 7.13356 0.137603 1.08444 7.13205 0.307133 1.0491 -12.3259 5.26471 -1.94728 -12.386 11.2346 -0.351809 -0.0 0.0 -0.0 4.31148 4.30909 8.48919 -10.5093 -14.7139 60.7542 2.15608 -46.8789 0.934871 85.2102 -4.4517 -8.87578 2.5264 -0.669754 16.871 -0.0 0.0 -0.0 10.5354 -0.0802957 -20.7608 25.8874 -61.453 -24.2553 0.310113 8.73375 -0.0236816 85.2424 4.45558 8.87725 -2.50817 5.51837 19.6323 0.0 0.0 0.0 6.56101 20.7239 7.0109 -26.4136 0.164643 4.01433 41.5953 17.4661 -5.11724 6.60489 -0.0 -0.0 -0.0 0.0 -0.0 49.2303 24.8693 -9.12842 -15.5478 -0.322088 -2.35694 14.754 18.1999 2.28691 -31.0659 0.0 0.0 0.0 0.0 0.0 
2381.8 624.832 -1002.26 -25.3884 46.8751 15.6757 6.95902 0.336737 0.961104 6.95949 0.2749 0.980581 6.96348 0.185467 1.00135 6.96224 0.341278 0.959501 -14.0059 3.75331 -1.13259 -14.0485 7.85099 0.106934 -0.0 0.0 -0.0 4.13744 7.22239 8.2621 -12.2084 -15.9133 62.1687 1.781 -41.4167 0.673329 80.5663 -3.90399 -8.64137 2.65838 1.00794 18.4647 -0.0 0.0 -0.0 11.1068 1.02276 -22.0265 28.9407 -58.6038 -24.0856 0.193561 5.47716 -0.00925878 83.4252 4.23897 8.79094 -1.79924 2.21531 13.1275 0.0 0.0 0.0 7.49405 15.9046 8.58831 -29.5204 0.0621358 4.48006 40.779 25.1336 -5.24658 8.92898 -0.0 -0.0 -0.0 0.0 -0.0 45.1389 22.8739 -6.77599 -15.1701 -0.32189 -2.29899 19.2934 18.9439 2.94231 -32.044 0.0 0.0 0.0 0.0 0.0 
